<svg xmlns="http://www.w3.org/2000/svg" viewBox="0 0 24 24">
  <rect x="0.5" y="0.5" width="23" height="23" rx="5" ry="5" fill="#ffffff" stroke="#d1d5db" stroke-width="1" />
  <g fill="none" stroke="#111827" stroke-linecap="round" stroke-linejoin="round" stroke-width="2">
    <path d="M5 20a2 2 0 0 1 2-2h10a2 2 0 0 1 2 2v1a1 1 0 0 1-1 1H6a1 1 0 0 1-1-1zM16.5 18c1-2 2.5-5 2.5-9a7 7 0 0 0-7-7H6.635a1 1 0 0 0-.768 1.64L7 5l-2.32 5.802a2 2 0 0 0 .95 2.526l2.87 1.456M15 5l1.425-1.425M17 8l1.53-1.53M9.713 12.185 7 18"/>
  </g>
</svg>
